<svg viewBox="  100 100 100 100" xmlns="http://www.w3.org/2000/svg">
  <path fill="#FF0066" d="M34.8,-57.7C48.3,-52.4,64.7,-49.6,74.7,-40.4C84.8,-31.2,88.4,-15.6,88.5,0C88.5,15.7,85,31.3,76.5,43.2C68,55.1,54.5,63.1,41,65.9C27.4,68.6,13.7,66,-0.3,66.5C-14.2,66.9,-28.5,70.4,-41.8,67.5C-55,64.6,-67.4,55.3,-76.3,43C-85.2,30.7,-90.6,15.3,-91.7,-0.6C-92.9,-16.6,-89.7,-33.3,-79.9,-44.1C-70.1,-54.9,-53.8,-59.8,-39.3,-64.6C-24.9,-69.4,-12.5,-73.9,-0.9,-72.4C10.6,-70.8,21.3,-63,34.8,-57.7Z" transform="translate(100 100)" />
</svg> 