<svg width="120%" height="100%" viewBox="0 0 1130 720" fill="none" xmlns="http://www.w3.org/2000/svg">
<g filter="url(#filter0_d_120_2)">
<path d="M0 493C0 272.086 179.086 93 400 93H730C950.914 93 1130 272.086 1130 493V720H0V493Z" fill="#FFDEDE"/>
</g>
<g filter="url(#filter1_d_120_2)">
<line x1="184.5" y1="-0.00119617" x2="185.5" y2="417.999" stroke="black"/>
</g>
<g filter="url(#filter2_d_120_2)">
<ellipse cx="185" cy="490" rx="74" ry="71" fill="#FFDEDE"/>
<path d="M185 561.5C226.126 561.5 259.5 529.508 259.5 490C259.5 450.492 226.126 418.5 185 418.5C143.874 418.5 110.5 450.492 110.5 490C110.5 529.508 143.874 561.5 185 561.5Z" stroke="black"/>
</g>
<g filter="url(#filter3_d_120_2)">
<line x1="184.5" y1="560.994" x2="185.5" y2="641.994" stroke="black"/>
</g>
<g filter="url(#filter4_d_120_2)">
<line x1="185" y1="641.5" x2="1130" y2="641.5" stroke="black"/>
</g>
<line x1="1130" y1="121.5" x2="946" y2="121.5" stroke="black"/>
<path d="M895 168.5C923.398 168.5 946.5 147.5 946.5 121.5C946.5 95.5002 923.398 74.5 895 74.5C866.602 74.5 843.5 95.5002 843.5 121.5C843.5 147.5 866.602 168.5 895 168.5Z" stroke="black"/>
<line x1="895.5" y1="168" x2="895.5" y2="797" stroke="black"/>
<defs>
<filter id="filter0_d_120_2" x="-4" y="93" width="1138" height="635" filterUnits="userSpaceOnUse" color-interpolation-filters="sRGB">
<feFlood flood-opacity="0" result="BackgroundImageFix"/>
<feColorMatrix in="SourceAlpha" type="matrix" values="0 0 0 0 0 0 0 0 0 0 0 0 0 0 0 0 0 0 127 0" result="hardAlpha"/>
<feOffset dy="4"/>
<feGaussianBlur stdDeviation="2"/>
<feComposite in2="hardAlpha" operator="out"/>
<feColorMatrix type="matrix" values="0 0 0 0 0 0 0 0 0 0 0 0 0 0 0 0 0 0 0.25 0"/>
<feBlend mode="normal" in2="BackgroundImageFix" result="effect1_dropShadow_120_2"/>
<feBlend mode="normal" in="SourceGraphic" in2="effect1_dropShadow_120_2" result="shape"/>
</filter>
<filter id="filter1_d_120_2" x="180" y="-0.00238037" width="10" height="426.002" filterUnits="userSpaceOnUse" color-interpolation-filters="sRGB">
<feFlood flood-opacity="0" result="BackgroundImageFix"/>
<feColorMatrix in="SourceAlpha" type="matrix" values="0 0 0 0 0 0 0 0 0 0 0 0 0 0 0 0 0 0 127 0" result="hardAlpha"/>
<feOffset dy="4"/>
<feGaussianBlur stdDeviation="2"/>
<feComposite in2="hardAlpha" operator="out"/>
<feColorMatrix type="matrix" values="0 0 0 0 0 0 0 0 0 0 0 0 0 0 0 0 0 0 0.25 0"/>
<feBlend mode="normal" in2="BackgroundImageFix" result="effect1_dropShadow_120_2"/>
<feBlend mode="normal" in="SourceGraphic" in2="effect1_dropShadow_120_2" result="shape"/>
</filter>
<filter id="filter2_d_120_2" x="106" y="418" width="158" height="152" filterUnits="userSpaceOnUse" color-interpolation-filters="sRGB">
<feFlood flood-opacity="0" result="BackgroundImageFix"/>
<feColorMatrix in="SourceAlpha" type="matrix" values="0 0 0 0 0 0 0 0 0 0 0 0 0 0 0 0 0 0 127 0" result="hardAlpha"/>
<feOffset dy="4"/>
<feGaussianBlur stdDeviation="2"/>
<feComposite in2="hardAlpha" operator="out"/>
<feColorMatrix type="matrix" values="0 0 0 0 0 0 0 0 0 0 0 0 0 0 0 0 0 0 0.25 0"/>
<feBlend mode="normal" in2="BackgroundImageFix" result="effect1_dropShadow_120_2"/>
<feBlend mode="normal" in="SourceGraphic" in2="effect1_dropShadow_120_2" result="shape"/>
</filter>
<filter id="filter3_d_120_2" x="180" y="560.988" width="9.99988" height="89.0123" filterUnits="userSpaceOnUse" color-interpolation-filters="sRGB">
<feFlood flood-opacity="0" result="BackgroundImageFix"/>
<feColorMatrix in="SourceAlpha" type="matrix" values="0 0 0 0 0 0 0 0 0 0 0 0 0 0 0 0 0 0 127 0" result="hardAlpha"/>
<feOffset dy="4"/>
<feGaussianBlur stdDeviation="2"/>
<feComposite in2="hardAlpha" operator="out"/>
<feColorMatrix type="matrix" values="0 0 0 0 0 0 0 0 0 0 0 0 0 0 0 0 0 0 0.25 0"/>
<feBlend mode="normal" in2="BackgroundImageFix" result="effect1_dropShadow_120_2"/>
<feBlend mode="normal" in="SourceGraphic" in2="effect1_dropShadow_120_2" result="shape"/>
</filter>
<filter id="filter4_d_120_2" x="181" y="641" width="953" height="9" filterUnits="userSpaceOnUse" color-interpolation-filters="sRGB">
<feFlood flood-opacity="0" result="BackgroundImageFix"/>
<feColorMatrix in="SourceAlpha" type="matrix" values="0 0 0 0 0 0 0 0 0 0 0 0 0 0 0 0 0 0 127 0" result="hardAlpha"/>
<feOffset dy="4"/>
<feGaussianBlur stdDeviation="2"/>
<feComposite in2="hardAlpha" operator="out"/>
<feColorMatrix type="matrix" values="0 0 0 0 0 0 0 0 0 0 0 0 0 0 0 0 0 0 0.25 0"/>
<feBlend mode="normal" in2="BackgroundImageFix" result="effect1_dropShadow_120_2"/>
<feBlend mode="normal" in="SourceGraphic" in2="effect1_dropShadow_120_2" result="shape"/>
</filter>
</defs>
</svg>
