<svg xmlns="http://www.w3.org/2000/svg" viewBox="0 0 700 500"><path fill="#fcf6bd" fill-opacity="0.6" d="M0,64L21.8,58.7C43.6,53,87,43,131,64C174.5,85,218,139,262,181.3C305.5,224,349,256,393,261.3C436.4,267,480,245,524,208C567.3,171,611,117,655,96C698.2,75,742,85,785,106.7C829.1,128,873,160,916,149.3C960,139,1004,85,1047,64C1090.9,43,1135,53,1178,69.3C1221.8,85,1265,107,1309,133.3C1352.7,160,1396,192,1418,208L1440,224L1440,0L1418.2,0C1396.4,0,1353,0,1309,0C1265.5,0,1222,0,1178,0C1134.5,0,1091,0,1047,0C1003.6,0,960,0,916,0C872.7,0,829,0,785,0C741.8,0,698,0,655,0C610.9,0,567,0,524,0C480,0,436,0,393,0C349.1,0,305,0,262,0C218.2,0,175,0,131,0C87.3,0,44,0,22,0L0,0Z"></path></svg>