<svg xmlns="http://www.w3.org/2000/svg" shape-rendering="geometricPrecision" text-rendering="geometricPrecision" image-rendering="optimizeQuality" fill-rule="evenodd" clip-rule="evenodd" viewBox="0 0 512 506.49"><path fill-rule="nonzero" d="M294.24 17.11C294.24 7.69 303.53 0 315.1 0c11.59 0 20.87 7.64 20.87 17.11v74.84c0 9.43-9.28 17.12-20.87 17.12-11.57 0-20.86-7.65-20.86-17.12V17.11zm47.99 330.77 22.56 21.37 44.71-45.4c4.18-4.25 6.78-7.63 11.93-2.35l16.71 17.08c5.46 5.42 5.18 8.58.01 13.66l-63.85 62.74c-10.88 10.68-9 11.35-20.05.36l-40.14-39.9c-2.28-2.5-2.04-5 .45-7.52l19.38-20.07c2.93-3.04 5.26-2.85 8.29.03zm35.59-109.77c36.98 0 70.56 15.04 94.83 39.34 24.31 24.25 39.35 57.8 39.35 94.86 0 36.99-15.04 70.56-39.3 94.83-24.32 24.31-57.89 39.35-94.88 39.35-37.03 0-70.56-15.04-94.84-39.3-24.32-24.27-39.34-57.86-39.34-94.88 0-37.06 15.04-70.61 39.31-94.89l.69-.63c24.24-23.9 57.53-38.68 94.18-38.68zm78.74 55.41c-20.09-20.11-47.96-32.59-78.74-32.59-30.5 0-58.14 12.26-78.19 32.03l-.55.59c-20.15 20.15-32.62 48.01-32.62 78.76 0 30.75 12.46 58.6 32.61 78.75 20.1 20.13 47.98 32.6 78.75 32.6 30.76 0 58.65-12.47 78.77-32.59 20.11-20.11 32.58-48 32.58-78.76 0-30.75-12.47-58.61-32.61-78.79zM56.81 242.28c-1.18 0-2.24-5.2-2.24-11.57 0-6.38.94-11.53 2.24-11.53h56.94c1.19 0 2.25 5.2 2.25 11.53 0 6.39-.94 11.57-2.25 11.57H56.81zm90.78 0c-1.19 0-2.24-5.2-2.24-11.57 0-6.38.93-11.53 2.24-11.53h56.94c1.18 0 2.24 5.2 2.24 11.53 0 6.39-.94 11.57-2.24 11.57h-56.94zm90.77 0c-1.18 0-2.24-5.2-2.24-11.57 0-6.38.93-11.53 2.24-11.53h56.94c1.18 0 2.24 5.15 2.24 11.49a175.09 175.09 0 0 0-16.44 11.61h-42.74zM56.94 308.52c-1.18 0-2.24-5.2-2.24-11.57 0-6.39.93-11.59 2.24-11.59h56.94c1.18 0 2.24 5.2 2.24 11.59 0 6.37-.93 11.57-2.24 11.57H56.94zm90.77 0c-1.18 0-2.24-5.2-2.24-11.57 0-6.39.93-11.59 2.24-11.59h56.94c1.18 0 2.24 5.2 2.24 11.59 0 6.37-.93 11.57-2.24 11.57h-56.94zM57.06 374.8c-1.18 0-2.24-5.2-2.24-11.59 0-6.37.94-11.57 2.24-11.57H114c1.19 0 2.25 5.2 2.25 11.57 0 6.39-.94 11.59-2.25 11.59H57.06zm90.78 0c-1.19 0-2.25-5.2-2.25-11.59 0-6.37.94-11.57 2.25-11.57h56.94c1.18 0 2.24 5.2 2.24 11.57 0 6.39-.94 11.59-2.24 11.59h-56.94zM106.83 17.11c0-9.42 9.29-17.11 20.86-17.11 11.58 0 20.86 7.64 20.86 17.11v74.84c0 9.43-9.32 17.12-20.86 17.12-11.57 0-20.86-7.65-20.86-17.12V17.11zM22.98 163.64h397.39V77.46c0-2.94-1.18-5.53-3.08-7.43-1.9-1.9-4.61-3.08-7.44-3.08h-38.1c-6.37 0-11.57-5.2-11.57-11.57 0-6.38 5.2-11.58 11.57-11.58h38.1c9.34 0 17.7 3.77 23.82 9.88 6.13 6.14 9.88 14.5 9.88 23.83v136.81c-7.59-2.62-15.41-4.73-23.43-6.29v-21.38h.25H22.98v223.16c0 2.95 1.19 5.53 3.08 7.43 1.9 1.9 4.61 3.08 7.43 3.08h188.86c2.15 8.02 4.86 15.84 8.12 23.36H33.71c-9.3 0-17.7-3.75-23.82-9.89C3.77 427.72 0 419.36 0 410.02V77.55c0-9.29 3.77-17.7 9.89-23.82 6.12-6.13 14.48-9.89 23.82-9.89h40.68c6.37 0 11.57 5.2 11.57 11.57 0 6.39-5.2 11.59-11.57 11.59H33.71c-2.96 0-5.53 1.18-7.43 3.08-1.91 1.9-3.1 4.59-3.1 7.43v86.16h-.2v-.03zm158.95-96.69c-6.38 0-11.58-5.2-11.58-11.57 0-6.38 5.2-11.58 11.58-11.58h77.54c6.39 0 11.59 5.2 11.59 11.58 0 6.37-5.2 11.57-11.59 11.57h-77.54z"/></svg>