<svg width="16" height="17" viewBox="0 0 16 17" fill="none" xmlns="http://www.w3.org/2000/svg">
<path d="M8.00016 8.16667V11.5M14.6668 4H1.3335M5.0835 4L5.53683 2.64C5.64737 2.30813 5.85952 2.01944 6.14324 1.81484C6.42696 1.61024 6.76786 1.50009 7.11766 1.5H8.88183C9.23177 1.49992 9.57286 1.60998 9.85675 1.8146C10.1406 2.01921 10.3529 2.30799 10.4635 2.64L10.9168 4M3.00016 4L3.7785 14.8925C3.79345 15.1025 3.88735 15.2991 4.04132 15.4427C4.1953 15.5863 4.39794 15.6664 4.6085 15.6667H11.3902C11.6009 15.6666 11.8037 15.5867 11.9579 15.443C12.112 15.2994 12.206 15.1027 12.221 14.8925L13.0002 4H3.00016Z" stroke="#1E1E1E" stroke-width="2" stroke-linecap="round" stroke-linejoin="round"/>
</svg>
